<?xml version="1.0" encoding="UTF-8"?>
<svg version="1.1" xmlns="http://www.w3.org/2000/svg" width="512" height="512">
<path d="M0 0 C168.96 0 337.92 0 512 0 C512 168.96 512 337.92 512 512 C343.04 512 174.08 512 0 512 C0 343.04 0 174.08 0 0 Z " fill="#FEFEFE" transform="translate(0,0)"/>
<path d="M0 0 C107.58 0 215.16 0 326 0 C326 48.18 326 96.36 326 146 C218.42 146 110.84 146 0 146 C0 97.82 0 49.64 0 0 Z " fill="#651956" transform="translate(93,170)"/>
<path d="M0 0 C3.09523241 1.82564172 6.22149815 3.59821518 9.34155273 5.38110352 C9.34155273 31.45110352 9.34155273 57.52110352 9.34155273 84.38110352 C-98.23844727 84.38110352 -205.81844727 84.38110352 -316.65844727 84.38110352 C-316.65844727 58.64110352 -316.65844727 32.90110352 -316.65844727 6.38110352 C-277.80697417 -16.92978034 -236.68582979 -35.40461915 -191.65844727 -42.61889648 C-190.85052734 -42.75569824 -190.04260742 -42.8925 -189.21020508 -43.03344727 C-123.62693955 -53.93122856 -56.16960123 -33.50248943 0 0 Z " fill="#661A57" transform="translate(409.658447265625,82.618896484375)"/>
<path d="M0 0 C53.79 0 107.58 0 163 0 C163 27.24465726 163 27.24465726 154.01074219 36.54418945 C153.02315918 37.37889771 153.02315918 37.37889771 152.015625 38.23046875 C151.27376953 38.87161621 150.53191406 39.51276367 149.76757812 40.17333984 C149.01927734 40.8173877 148.27097656 41.46143555 147.5 42.125 C146.02038718 43.48737396 144.54637698 44.85585862 143.078125 46.23046875 C139.12118516 49.90292526 135.07975809 53.46517516 131 57 C129.55764324 58.25895681 128.11598608 59.51871562 126.67504883 60.77929688 C126.03271805 61.34048218 125.39038727 61.90166748 124.72859192 62.4798584 C122.52396843 64.41862708 120.35431 66.39413342 118.1875 68.375 C113.87225424 72.26924618 109.42908245 75.96654724 104.91015625 79.62109375 C102.33116035 81.72929309 99.7909932 83.87274687 97.26074219 86.03857422 C90.97545054 91.41390573 84.54334778 96.55869265 77.93896484 101.53808594 C76.54193042 102.59140275 75.14663255 103.6470242 73.75244141 104.70410156 C63.09533305 112.78346674 52.351091 120.70648996 41.37402344 128.34570312 C38.68526257 130.2193193 36.00285044 132.10186087 33.3203125 133.984375 C3.31827406 155 3.31827406 155 0 155 C0 103.85 0 52.7 0 0 Z " fill="#651956" transform="translate(256,319)"/>
<path d="M0 0 C52.14 0 104.28 0 158 0 C158 51.15 158 102.3 158 155 C147.87134452 149.37296918 147.87134452 149.37296918 144.37890625 146.90625 C143.59813721 146.35767334 142.81736816 145.80909668 142.01293945 145.24389648 C141.20429443 144.66841064 140.39564941 144.0929248 139.5625 143.5 C138.26542114 142.58359741 138.26542114 142.58359741 136.94213867 141.64868164 C134.29058825 139.7715784 131.64457187 137.88691894 129 136 C128.20787109 135.43651855 127.41574219 134.87303711 126.59960938 134.29248047 C115.55360472 126.42489573 104.71571772 118.31100941 94 110 C93.37609375 109.51789063 92.7521875 109.03578125 92.109375 108.5390625 C84.61533223 102.74238839 77.29642298 96.77951047 70.09375 90.625 C67.2044868 88.16084036 64.26481542 85.76339 61.3125 83.375 C56.85665226 79.74814719 52.56768445 75.9733733 48.3203125 72.10546875 C46.29845816 70.27082315 44.25321478 68.47231214 42.1875 66.6875 C37.81591392 62.85593338 33.47429354 59.00307528 29.2734375 54.984375 C26.37293329 52.22240669 23.37432995 49.61212313 20.30903625 47.03457642 C17.97289796 45.04188287 15.69709195 42.98635173 13.42575073 40.92034912 C12.28739394 39.90832098 11.12671626 38.92073367 9.94314575 37.9619751 C5.32752305 34.20173102 3.52803697 31.34017755 0 26 C0 17.42 0 8.84 0 0 Z " fill="#651856" transform="translate(94,319)"/>
<path d="M0 0 C44.19742063 0 44.19742063 0 58.40625 13.1640625 C67.67252055 23.83844279 69.87759881 33.22034773 69.19091797 46.87988281 C68.48820098 54.68345608 64.4249714 60.26518363 59.48828125 66.08984375 C57.80369627 68.03287703 57.80369627 68.03287703 57 71 C58.27114318 73.70685308 58.27114318 73.70685308 60.19140625 76.62890625 C60.88943359 77.74716797 61.58746094 78.86542969 62.30664062 80.01757812 C63.05825576 81.19943376 63.81021084 82.38107329 64.5625 83.5625 C65.28807134 84.71619244 66.01269125 85.87048384 66.73632812 87.02539062 C68.15099748 89.28191572 69.56886449 91.53630179 70.98876953 93.78955078 C79 106.57756737 79 106.57756737 79 108 C53.31780366 111.1797005 53.31780366 111.1797005 46.46582031 106.13378906 C42.51669585 101.41694084 40.17667588 96.05205414 37.94042969 90.36621094 C36.59637543 86.98444201 35.48950131 84.69914352 33 82 C30.36 81.67 27.72 81.34 25 81 C25 89.91 25 98.82 25 108 C16.75 108 8.5 108 0 108 C0 72.36 0 36.72 0 0 Z " fill="#FCFBFC" transform="translate(207,189)"/>
<path d="M0 0 C32.83361944 -0.06860872 65.66722035 -0.12149955 98.50089508 -0.15319599 C102.37380647 -0.15694828 106.24671772 -0.16083123 110.11962891 -0.16479492 C110.8906829 -0.16558185 111.66173689 -0.16636878 112.45615615 -0.16717956 C124.95462257 -0.18024726 137.45304775 -0.20390856 149.95148967 -0.23145839 C162.7680974 -0.25947472 175.58468348 -0.27616825 188.40132058 -0.28226548 C196.31519478 -0.28638978 204.22895246 -0.29943391 212.14279081 -0.3237494 C218.20262204 -0.34142432 224.2623522 -0.3433752 230.32221222 -0.33932304 C232.81439305 -0.34015206 235.30657808 -0.34616789 237.79873276 -0.35761642 C241.18759225 -0.37242768 244.57594325 -0.36899523 247.96481323 -0.36076355 C248.96285221 -0.36950207 249.96089119 -0.3782406 250.98917377 -0.38724393 C251.89187193 -0.38127078 252.79457008 -0.37529764 253.72462273 -0.36914349 C254.50760605 -0.37028265 255.29058937 -0.37142181 256.09729946 -0.37259549 C256.72519064 -0.24963898 257.35308182 -0.12668247 258 0 C261.00540264 4.50810396 260.69395323 8.71633633 260 14 C256.6953317 23.15233415 256.6953317 23.15233415 253 25 C250.18899037 25.10245308 247.40250041 25.14337169 244.59103394 25.14044189 C243.71039972 25.14341302 242.82976551 25.14638414 241.92244542 25.1494453 C238.95333305 25.15815916 235.98426088 25.15964287 233.01513672 25.16113281 C230.89304518 25.16575945 228.77095447 25.1707839 226.64886475 25.17617798 C220.86710184 25.18932747 215.08535057 25.19575305 209.30357504 25.20018864 C205.68824323 25.20311807 202.0729146 25.20722285 198.45758438 25.21169281 C187.13811567 25.22538062 175.81865423 25.23503836 164.49917781 25.2388947 C151.44993517 25.24336482 138.40079782 25.26085858 125.35158718 25.2898953 C115.25880912 25.31156953 105.16606054 25.3216022 95.07325947 25.32293582 C89.0498857 25.32398066 83.02661074 25.32981872 77.00326157 25.34775543 C71.32500588 25.36433319 65.6469222 25.3663448 59.96865082 25.35761642 C57.89516614 25.35685095 55.82167185 25.36112334 53.74821091 25.37107468 C17.34985501 25.53537505 17.34985501 25.53537505 4.96484375 14.125 C0.58960896 9.16019457 -0.12035621 6.49923552 0 0 Z " fill="#FBFAFB" transform="translate(126,124)"/>
<path d="M0 0 C2.70943075 1.86015487 5.24669592 3.60917057 7.578125 5.92578125 C7.578125 8.92578125 7.578125 8.92578125 6.07421875 10.50390625 C5.05521484 11.33148438 5.05521484 11.33148438 4.015625 12.17578125 C-3.09136253 17.79128441 -3.09136253 17.79128441 -8.421875 24.92578125 C-10.51214549 23.91603433 -12.50580043 22.87302812 -14.47265625 21.63671875 C-22.50268874 16.89359075 -30.84369069 16.66788394 -39.9140625 18.40234375 C-47.23763842 20.76754531 -52.77787146 26.31258964 -56.421875 32.92578125 C-59.58371614 40.98847617 -59.51371488 49.81014055 -56.3828125 57.8671875 C-52.84522236 65.44568345 -47.9490238 69.27847988 -40.421875 72.92578125 C-31.57311612 75.788615 -22.5882662 73.88323825 -14.421875 69.92578125 C-13.06070734 68.96401186 -11.71714314 67.97461786 -10.421875 66.92578125 C-7.37854735 68.28420145 -5.29878349 69.81041149 -2.96875 72.18359375 C-2.35 72.80878906 -1.73125 73.43398438 -1.09375 74.078125 C-0.45953125 74.72910156 0.1746875 75.38007813 0.828125 76.05078125 C1.4778125 76.70949219 2.1275 77.36820312 2.796875 78.046875 C4.39524227 79.66874768 5.98874397 81.29510935 7.578125 82.92578125 C3.37986145 91.78449208 -6.74531036 95.53510041 -15.52734375 98.6796875 C-29.32697752 102.49660748 -44.79775304 100.42955201 -57.29296875 93.88671875 C-66.05729555 88.39396962 -73.40761744 81.00158744 -78.421875 71.92578125 C-78.80859375 71.23613281 -79.1953125 70.54648437 -79.59375 69.8359375 C-86.05172136 57.64534664 -86.89921754 41.41545005 -82.859375 28.23828125 C-76.2905632 12.06170557 -65.11440399 1.04524889 -49.3046875 -5.9453125 C-33.42323676 -12.16447139 -14.1398409 -8.8353525 0 0 Z " fill="#FCFBFC" transform="translate(374.421875,197.07421875)"/>
<path d="M0 0 C3.13963014 0.83015403 6.28661873 1.62345093 9.4375 2.40966797 C11.38586315 2.90923192 13.3338007 3.41045959 15.28125 3.91357422 C16.16627197 4.13416504 17.05129395 4.35475586 17.96313477 4.58203125 C24.79379984 6.40800514 31.18396962 8.79890365 35.21875 14.85107422 C35.6963233 19.70640278 35.73216394 21.89506206 33.40625 26.22607422 C30.9399972 29.18557758 29.35312499 30.6818131 25.49609375 31.25732422 C14.75970552 31.55869652 6.17551008 28.50522226 -3.78125 24.85107422 C-19.82595787 19.19919648 -33.40273958 21.90379761 -49.08569336 27.07324219 C-49.97522705 27.32992676 -50.86476074 27.58661133 -51.78125 27.85107422 C-52.37627319 28.02467972 -52.97129639 28.19828522 -53.58435059 28.37715149 C-60.73687702 30.23072786 -67.84285008 30.19206111 -75.1953125 30.22216797 C-76.57815639 30.23115484 -77.9609994 30.24027699 -79.34384155 30.24952698 C-82.22664742 30.2659185 -85.10933843 30.2737001 -87.9921875 30.27661133 C-91.67195699 30.28201361 -95.35063846 30.31980954 -99.03009987 30.36535549 C-101.88013613 30.39518849 -104.72991078 30.40233606 -107.58008957 30.40333748 C-109.59139472 30.40954024 -111.60258555 30.43895521 -113.61367798 30.46885681 C-121.01050453 30.43235862 -125.39306775 30.11957249 -130.78125 24.85107422 C-133.50848524 20.10040639 -134.37529681 16.29650327 -133.78125 10.85107422 C-131.88797504 5.59197712 -129.18341785 3.06098828 -124.78125 -0.14892578 C-121.34544215 -1.29419506 -118.76856242 -1.24166645 -115.14526367 -1.19897461 C-114.47481018 -1.19269547 -113.80435669 -1.18641632 -113.11358643 -1.1799469 C-111.65672486 -1.16609866 -110.19988199 -1.15016344 -108.74306297 -1.13239479 C-106.42443969 -1.10567144 -104.10591332 -1.08784986 -101.78718567 -1.07292175 C-95.19363961 -1.03029221 -88.60027914 -0.98328222 -82.00708008 -0.90209961 C-77.97059624 -0.85305282 -73.93438232 -0.82442985 -69.89763832 -0.80835533 C-68.3712545 -0.79856781 -66.84489666 -0.78152995 -65.31868553 -0.75657082 C-56.31008299 -0.6127175 -48.52002547 -1.32187457 -39.9186554 -4.22538757 C-26.66279739 -8.12743076 -12.86100692 -3.41813721 0 0 Z " fill="#FBF9FA" transform="translate(319.78125,90.14892578125)"/>
<path d="M0 0 C22.11 0 44.22 0 67 0 C67 8.25 67 16.5 67 25 C60.07 25 53.14 25 46 25 C46 52.72 46 80.44 46 109 C37.75 109 29.5 109 21 109 C21 81.61 21 54.22 21 26 C14.4 26 7.8 26 1 26 C0.67 25.67 0.34 25.34 0 25 C0 16.75 0 8.5 0 0 Z " fill="#FCFAFB" transform="translate(129,188)"/>
<path d="M0 0 C0.99 0 1.98 0 3 0 C3.50775403 13.61062895 3.07045699 23.32698491 -4.14477539 35.23364258 C-4.69186157 36.138927 -4.69186157 36.138927 -5.25 37.0625 C-5.60892334 37.65506592 -5.96784668 38.24763184 -6.33764648 38.8581543 C-9.83465143 44.91521179 -9.82385258 49.55904227 -8.58984375 56.2109375 C-8.39519531 56.80132812 -8.20054687 57.39171875 -8 58 C-7.34 58.33 -6.68 58.66 -6 59 C-6.15339844 58.45085937 -6.30679688 57.90171875 -6.46484375 57.3359375 C-8.33105519 49.18999266 -7.55057841 42.91256642 -3.1875 35.75 C-2.47980469 34.65171875 -1.77210938 33.5534375 -1.04296875 32.421875 C3.22345986 25.27581102 4.53449159 18.74348236 5.1875 10.5 C5.26935547 9.5821875 5.35121094 8.664375 5.43554688 7.71875 C5.63378407 5.47983576 5.82171417 3.24057592 6 1 C7.32 1.66 8.64 2.32 10 3 C10.05449228 5.83359844 10.09390733 8.66612485 10.125 11.5 C10.14175781 12.29148437 10.15851563 13.08296875 10.17578125 13.8984375 C10.23155346 20.70264681 9.18718142 26.67400502 6.375 32.9375 C4.70764292 37.28117894 4.19135699 41.39425068 5 46 C7.05838525 49.33600367 8.7393264 50.8262176 12 53 C14.4390328 53.19475675 14.4390328 53.19475675 17.1484375 53.01953125 C18.65664062 52.97602539 18.65664062 52.97602539 20.1953125 52.93164062 C22.30777515 52.85248815 24.41982647 52.76142247 26.53125 52.65820312 C34.27192724 52.46518112 34.27192724 52.46518112 38.1640625 55.32421875 C40.9113547 59.328251 41.15860637 62.30660865 41.1875 67.0625 C41.20167969 68.12597656 41.21585937 69.18945312 41.23046875 70.28515625 C41 73 41 73 39 75 C35.98173347 75.27240673 33.03629378 75.08675125 30 75 C30 71.37 30 67.74 30 64 C26.8927814 65.69484651 24.29712615 67.57327447 21.6875 69.9375 C14.34884656 76.21212693 8.50912723 77.79479074 -1.30078125 77.51171875 C-8.92479237 76.4570773 -14.99662808 72.16015559 -19.6171875 66.07421875 C-20.07351562 65.38972656 -20.52984375 64.70523438 -21 64 C-21.55945313 63.18144531 -22.11890625 62.36289062 -22.6953125 61.51953125 C-26.38964764 55.29071037 -27.56201329 49.87262476 -27.625 42.75 C-27.64119385 41.63371216 -27.64119385 41.63371216 -27.65771484 40.49487305 C-27.50051093 34.341365 -25.79065075 28.75327959 -21.32275391 24.34521484 C-18.33607193 21.88826983 -16.39794838 21.04263733 -12.5 20.625 C-8.98497337 21.00161 -5.49812312 21.49193926 -2 22 C-1.97494385 21.36908447 -1.9498877 20.73816895 -1.92407227 20.08813477 C-1.80845863 17.24603175 -1.68557684 14.40428917 -1.5625 11.5625 C-1.52318359 10.56927734 -1.48386719 9.57605469 -1.44335938 8.55273438 C-1.40146484 7.60849609 -1.35957031 6.66425781 -1.31640625 5.69140625 C-1.27974854 4.81685791 -1.24309082 3.94230957 -1.20532227 3.04125977 C-1 1 -1 1 0 0 Z " fill="#F9F7F8" transform="translate(197,333)"/>
<path d="M0 0 C107.58 0 215.16 0 326 0 C326 48.18 326 96.36 326 146 C218.42 146 110.84 146 0 146 C0 97.82 0 49.64 0 0 Z M2 1 C2 48.19 2 95.38 2 144 C108.26 144 214.52 144 324 144 C324 96.81 324 49.62 324 1 C217.74 1 111.48 1 2 1 Z " fill="#773269" transform="translate(93,170)"/>
<path d="M0 0 C4.67105792 1.55701931 8.08705685 4.08447373 12 7 C11.45276317 10.37462715 10.9451 12.08235 9 15 C9.53625 14.649375 10.0725 14.29875 10.625 13.9375 C14.00865705 12.6018459 15.51989177 12.86227231 19 14 C25.51237995 18.46311753 30.46908731 24.0761093 32 32 C32.57933903 39.18000503 32.66983518 44.86250861 28.8828125 51.0859375 C27.50130669 54.08123772 27.79561611 56.88442712 28.0546875 60.1171875 C28 62 28 62 26 64 C23.20315203 64.17525055 20.5067192 64.23143189 17.7109375 64.1953125 C16.48330185 64.19106766 16.48330185 64.19106766 15.23086548 64.18673706 C12.61209607 64.17552532 9.99366636 64.15041929 7.375 64.125 C5.60156743 64.11497147 3.82812951 64.1058454 2.0546875 64.09765625 C-2.29700626 64.07558278 -6.6484455 64.04104644 -11 64 C-11 60.37 -11 56.74 -11 53 C-17.27 53 -23.54 53 -30 53 C-29.67 51.68 -29.34 50.36 -29 49 C-16.46 49 -3.92 49 9 49 C9 50.32 9 51.64 9 53 C6.03 53 3.06 53 0 53 C0 53.99 0 54.98 0 56 C10.39222737 56.02105727 10.39222737 56.02105727 19 51 C23.12132998 45.40204377 24.89333872 40.9233751 24 34 C22.31511613 28.7679922 20.08911733 25.64705059 16 22 C15.525625 22.804375 15.05125 23.60875 14.5625 24.4375 C13 27 13 27 12 28 C8.05163095 28.2632246 5.39620731 28.08997373 2 26 C1.01 27.32 0.02 28.64 -1 30 C-2.65 29.67 -4.3 29.34 -6 29 C-6.66 30.32 -7.32 31.64 -8 33 C-9.32 32.67 -10.64 32.34 -12 32 C-13.19234461 26.4854062 -14.0779932 21.18073329 -10.91796875 16.25 C-10.48033203 15.5590625 -10.04269531 14.868125 -9.59179688 14.15625 C-9.12837891 13.4446875 -8.66496094 12.733125 -8.1875 12 C-7.50977539 10.93265625 -7.50977539 10.93265625 -6.81835938 9.84375 C-4.66108794 6.46769893 -2.47386859 3.15603169 0 0 Z " fill="#F5F1F4" transform="translate(304,333)"/>
<path d="M0 0 C3.76139878 2.67563419 6.82944548 6.21748471 8.89453125 10.34765625 C9.64707022 17.33551815 9.56540478 22.94175379 5.33203125 28.7265625 C2.0305068 32.44974904 -1.08160284 35.13783288 -6.08203125 35.65625 C-13.10658391 35.90444083 -18.22368431 36.0285556 -23.55078125 31.1015625 C-24.06382812 30.52277344 -24.576875 29.94398437 -25.10546875 29.34765625 C-25.55664062 28.84105469 -26.0078125 28.33445312 -26.47265625 27.8125 C-30.15908202 22.63879211 -29.92853408 16.43155153 -29.10546875 10.34765625 C-26.78170893 5.32833503 -22.6909159 1.43478843 -18.10546875 -1.65234375 C-11.65155941 -3.76129838 -5.87128222 -3.23094228 0 0 Z " fill="#FBFAFB" transform="translate(176.10546875,85.65234375)"/>
<path d="M0 0 C2 2 2 2 2.3125 4.4375 C1.9360342 7.52451953 1.37019277 8.07652123 -1 10 C-18.46815503 17.21042781 -37.51448816 16.74669597 -56 16 C-56 13.03 -56 10.06 -56 7 C-52.8866405 5.9622135 -50.69846409 5.87514351 -47.43359375 5.859375 C-35.79118602 5.69062012 -24.83583731 5.51982878 -13.73413086 1.72753906 C-8.86434405 0.06937877 -5.08343771 -0.38767355 0 0 Z " fill="#661A57" transform="translate(252,97)"/>
<path d="M0 0 C1.1471196 0.00707474 2.2942392 0.01414948 3.47612 0.0214386 C7.13448713 0.04939312 10.79131538 0.11213839 14.44921875 0.17578125 C16.9316185 0.20086253 19.41404227 0.22367599 21.89648438 0.24414062 C27.97715407 0.29922409 34.05667564 0.38550838 40.13671875 0.48828125 C40.13671875 3.78828125 40.13671875 7.08828125 40.13671875 10.48828125 C20.99671875 10.48828125 1.85671875 10.48828125 -17.86328125 10.48828125 C-15.69949598 -0.3306451 -9.59945637 -0.22285081 0 0 Z " fill="#F6F3F5" transform="translate(286.86328125,399.51171875)"/>
<path d="M0 0 C0.66 0.99 1.32 1.98 2 3 C2.99 2.67 3.98 2.34 5 2 C5.5878125 3.1446875 5.5878125 3.1446875 6.1875 4.3125 C8.25161261 7.37308076 9.70214752 8.39150541 13 10 C15.99586384 10.43710914 15.99586384 10.43710914 19.23974609 10.35644531 C20.47808197 10.35944641 21.71641785 10.36244751 22.99227905 10.36553955 C24.33600274 10.35352957 25.67972227 10.34104638 27.0234375 10.328125 C28.41199539 10.32506353 29.80055636 10.32319036 31.18911743 10.32244873 C34.09592497 10.31785407 37.00245419 10.30346486 39.90917969 10.28125 C43.62002752 10.25302136 47.33065617 10.24204226 51.04160118 10.2375679 C54.59807435 10.23238932 58.15449352 10.21786055 61.7109375 10.203125 C62.38230114 10.20124428 63.05366478 10.19936356 63.74537277 10.19742584 C65.66409571 10.19048438 67.58278651 10.17594335 69.50146484 10.16113281 C70.59002777 10.15430481 71.6785907 10.14747681 72.80014038 10.14044189 C76.25146236 9.98896331 79.58965123 9.5400501 83 9 C83 9.99 83 10.98 83 12 C114.68 12.495 114.68 12.495 147 13 C147 13.33 147 13.66 147 14 C79.68 14 12.36 14 -57 14 C-57 13.67 -57 13.34 -57 13 C-56.00258789 12.97494385 -55.00517578 12.9498877 -53.97753906 12.92407227 C-50.22011948 12.82875634 -46.46283249 12.72885718 -42.70556641 12.62768555 C-41.09003841 12.58479969 -39.47447842 12.54310008 -37.85888672 12.50268555 C-19.75556504 13.34361294 -19.75556504 13.34361294 -4 7 C-1.88298077 4.59097812 -1.02289206 3.06867617 0 0 Z " fill="#661E57" transform="translate(183,109)"/>
<path d="M0 0 C8.86162749 0.98462528 11.34708709 1.53934566 17.375 7.25 C19.55721398 10.94297751 19.69842938 13.80942373 19 18 C16.85504554 22.96726296 13.32073111 25.80988148 8.5625 28.25 C6 29 6 29 0 29 C0 19.43 0 9.86 0 0 Z " fill="#641754" transform="translate(232,215)"/>
<path d="M0 0 C0 0.99 0 1.98 0 3 C31.68 3.495 31.68 3.495 64 4 C64 4.33 64 4.66 64 5 C54.49925675 5.02312484 44.99852312 5.0409158 35.49775791 5.05181217 C31.08662996 5.05704069 26.6755212 5.06413777 22.2644043 5.07543945 C18.01098885 5.08626944 13.75759191 5.09227707 9.50416374 5.09487724 C7.87778367 5.09673129 6.25140466 5.10035152 4.62503242 5.10573006 C2.35489807 5.11294198 0.08484115 5.11399088 -2.18530273 5.11352539 C-4.12722755 5.11685631 -4.12722755 5.11685631 -6.10838318 5.12025452 C-9 5 -9 5 -10 4 C-11.77903357 3.87677242 -13.56286203 3.82210981 -15.34594727 3.79467773 C-16.4870546 3.77473251 -17.62816193 3.75478729 -18.80384827 3.73423767 C-20.66631447 3.70916893 -20.66631447 3.70916893 -22.56640625 3.68359375 C-23.83016586 3.66281265 -25.09392548 3.64203156 -26.39598083 3.62062073 C-29.76118633 3.56616286 -33.12640173 3.5159572 -36.49169922 3.46777344 C-39.92355901 3.41760241 -43.35532831 3.36189345 -46.78710938 3.30664062 C-53.52466761 3.19929809 -60.26229336 3.09755675 -67 3 C-67 2.67 -67 2.34 -67 2 C-66.25719788 1.98969254 -65.51439575 1.97938507 -64.74908447 1.96876526 C-57.74536904 1.8707459 -50.74173731 1.76822517 -43.73816299 1.66066074 C-40.13764699 1.60552067 -36.53712273 1.55211515 -32.93652344 1.50268555 C-29.46108835 1.45491019 -25.98574933 1.40256304 -22.51042938 1.34705925 C-20.54071081 1.31679173 -18.57092152 1.29124654 -16.60113525 1.26576233 C-15.40019226 1.24581711 -14.19924927 1.22587189 -12.96191406 1.20532227 C-11.90490295 1.18977798 -10.84789185 1.1742337 -9.7588501 1.15821838 C-6.38297335 0.96461389 -3.38416789 0 0 0 Z " fill="#7B436F" transform="translate(266,118)"/>
<path d="M0 0 C0.99 0 1.98 0 3 0 C1.27742019 7.57935116 -2.15682975 15.02617368 -6.6796875 21.34765625 C-8.48966205 24.98367021 -8.3255242 28.35226709 -8.1875 32.3125 C-8.17396484 33.05306641 -8.16042969 33.79363281 -8.14648438 34.55664062 C-8.11135979 36.37141075 -8.05755972 38.18580288 -8 40 C-8.99 39.67 -9.98 39.34 -11 39 C-11.65234375 37.2109375 -11.65234375 37.2109375 -12 35 C-12.12503906 34.31164062 -12.25007812 33.62328125 -12.37890625 32.9140625 C-12.91623332 26.21462292 -10.56789662 21.81045742 -7.14477539 16.27539062 C-3.94803489 11.09463795 -1.80561734 5.82074013 0 0 Z " fill="#712762" transform="translate(199,352)"/>
<path d="M0 0 C0.99 0 1.98 0 3 0 C3.0582253 3.08325358 3.09367134 6.16636505 3.125 9.25 C3.14175781 10.12269531 3.15851563 10.99539063 3.17578125 11.89453125 C3.18222656 12.73886719 3.18867188 13.58320313 3.1953125 14.453125 C3.20578613 15.22817383 3.21625977 16.00322266 3.22705078 16.80175781 C2.97326556 19.25883539 2.22444152 20.87311542 1 23 C0.34 22.67 -0.32 22.34 -1 22 C-1.02887814 18.52085059 -1.04675687 15.04173169 -1.0625 11.5625 C-1.07087891 10.56927734 -1.07925781 9.57605469 -1.08789062 8.55273438 C-1.09111328 7.60849609 -1.09433594 6.66425781 -1.09765625 5.69140625 C-1.10289307 4.81685791 -1.10812988 3.94230957 -1.11352539 3.04125977 C-1 1 -1 1 0 0 Z " fill="#E7DFE6" transform="translate(197,333)"/>
<path d="M0 0 C3.00035509 1.19022351 5.30910664 2.91376636 7.75 5 C8.67039063 5.7734375 8.67039063 5.7734375 9.609375 6.5625 C11 8 11 8 11 10 C7.04 10 3.08 10 -1 10 C-1.33 7.03 -1.66 4.06 -2 1 C-1.34 0.67 -0.68 0.34 0 0 Z " fill="#641754" transform="translate(193,395)"/>
<path d="M0 0 C0.99 0.33 1.98 0.66 3 1 C3 1.33 3 1.66 3 2 C10.59 2.33 18.18 2.66 26 3 C26 3.33 26 3.66 26 4 C12.47 4 -1.06 4 -15 4 C-11.35715647 2.17857824 -9.69805501 1.7072505 -5.8125 1.4375 C-2.59996202 1.45010753 -2.59996202 1.45010753 0 0 Z " fill="#6B2A5D" transform="translate(349,119)"/>
<path d="M0 0 C0.33 5.28 0.66 10.56 1 16 C0.01 15.67 -0.98 15.34 -2 15 C-3.19493974 11.96826719 -3.10493955 8.97540573 -3.0625 5.75 C-3.05347656 4.85796875 -3.04445312 3.9659375 -3.03515625 3.046875 C-3.02355469 2.37140625 -3.01195312 1.6959375 -3 1 C-1 0 -1 0 0 0 Z " fill="#763767" transform="translate(190,376)"/>
<path d="M0 0 C0.99 0.33 1.98 0.66 3 1 C2.67 1.99 2.34 2.98 2 4 C1.65772583 5.33106622 1.32248257 6.66400079 1 8 C4.465 7.505 4.465 7.505 8 7 C8.33 7.66 8.66 8.32 9 9 C5.7 9.33 2.4 9.66 -1 10 C-1.33 7.03 -1.66 4.06 -2 1 C-1.34 0.67 -0.68 0.34 0 0 Z " fill="#6C275D" transform="translate(193,395)"/>
<path d="M0 0 C0.66 0 1.32 0 2 0 C1.42069896 4.77923358 -0.39853671 8.02129144 -3 12 C-3.99 12.33 -4.98 12.66 -6 13 C-4.58707905 8.1725201 -2.57025846 4.2837641 0 0 Z " fill="#6A1A5B" transform="translate(194,364)"/>
<path d="M0 0 C2 2 2 2 2.1953125 5.2578125 C2.17210937 6.53398438 2.14890625 7.81015625 2.125 9.125 C2.10695312 10.40632813 2.08890625 11.68765625 2.0703125 13.0078125 C2.04710937 13.99523437 2.02390625 14.98265625 2 16 C1.01 16.33 0.02 16.66 -1 17 C-0.67 11.39 -0.34 5.78 0 0 Z " fill="#600F4D" transform="translate(185,96)"/>
<path d="M0 0 C3.3 0.99 6.6 1.98 10 3 C8.02 3.99 8.02 3.99 6 5 C3.98079663 3.69593116 1.98075027 2.36176581 0 1 C0 0.67 0 0.34 0 0 Z " fill="#6A225B" transform="translate(326,265)"/>
<path d="M0 0 C-0.33 1.32 -0.66 2.64 -1 4 C-2.32 4 -3.64 4 -5 4 C-5 3.34 -5 2.68 -5 2 C-5.66 1.67 -6.32 1.34 -7 1 C-4.50935112 0.31292445 -2.62113708 0 0 0 Z " fill="#702C63" transform="translate(266,118)"/>
</svg>
